<?xml version="1.0" encoding="UTF-8"?>
<svg width="24px" height="25px" viewBox="0 0 24 25" version="1.1" xmlns="http://www.w3.org/2000/svg" xmlns:xlink="http://www.w3.org/1999/xlink">
    <!-- Generator: Sketch 42 (36781) - http://www.bohemiancoding.com/sketch -->
    <title>CH Logomark</title>
    <desc>Created with Sketch.</desc>
    <defs></defs>
    <g id="Symbols" stroke="none" stroke-width="1" fill="none" fill-rule="evenodd">
        <g id="nav-HS" transform="translate(-82.000000, -16.000000)" fill="#FFFFFF">
            <g id="top-nav-HS,-color">
                <g id="CH-Logomark" transform="translate(82.000000, 16.000000)">
                    <polygon id="Fill-5" points="9.62151059 5.32907052e-15 7.38077468 3.69038734 9.62151059 7.38077468 14.102408 7.38077468 16.3431439 3.69038734 14.1029824 5.32907052e-15"></polygon>
                    <polygon id="Fill-6" points="9.62151059 16.8703421 7.38077468 20.5601832 9.62151059 24.2511168 14.102408 24.2511168 16.3431439 20.5601832 14.1029824 16.8703421"></polygon>
                    <polygon id="Fill-7" points="2.24073591 4.21758553 0 7.90769977 2.24073591 11.5983602 6.72105894 11.5983602 8.96236925 7.90769977 6.72163334 4.21758553"></polygon>
                    <polygon id="Fill-8" points="2.24073591 12.6527566 0 16.3428708 2.24073591 20.0335313 6.72105894 20.0335313 8.96236925 16.3428708 6.72163334 12.6527566"></polygon>
                    <polygon id="Fill-9" points="17.0024289 11.5983602 14.7615494 7.90797287 17.0024289 4.21758553 21.4836135 4.21758553 23.7239186 7.90797287 21.4836135 11.5983602"></polygon>
                    <polygon id="Fill-10" points="17.0024289 20.0335313 14.7615494 16.3434171 17.0024289 12.6527566 21.4836135 12.6527566 23.7239186 16.3434171 21.4836135 20.0335313"></polygon>
                </g>
            </g>
        </g>
    </g>
</svg>