<?xml version="1.0" encoding="UTF-8" standalone="no"?>
<svg width="54px" height="52px" viewBox="0 0 54 52" version="1.1" xmlns="http://www.w3.org/2000/svg" xmlns:xlink="http://www.w3.org/1999/xlink">
    <!-- Generator: Sketch 39.1 (31720) - http://www.bohemiancoding.com/sketch -->
    <title>Group 2</title>
    <desc>Created with Sketch.</desc>
    <defs></defs>
    <g id="Page-2" stroke="none" stroke-width="1" fill="none" fill-rule="evenodd">
        <g id="New-Report---Charts-and-Sources---Heavy-Beer-Selected" transform="translate(-1091.000000, -182.000000)">
            <g id="monitor-sources-and-charts" transform="translate(0.000000, 117.000000)">
                <g id="components" transform="translate(286.000000, 43.000000)">
                    <g id="clusters" transform="translate(775.000000, 0.000000)">
                        <g id="Group-2" transform="translate(30.000000, 22.000000)">
                            <path d="M14.4977639,42.7534 C14.4977639,42.7534 17.2122499,47.6885799 20.9136875,48.0998976 C24.6151252,48.5112153 28.5378306,46.7476115 28.5378306,46.7476115 C28.5378306,46.7476115 36.042797,54.9136393 46.4953295,48.8442772 C56.947862,42.775126 53.126404,29.5127662 48.5183799,26.590512 C48.5183799,26.590512 57.8240742,13.4144234 45.9293985,4.15576699 C34.0347228,-5.10267849 24.9690693,6.98478918 24.9690693,6.98478918 C24.9690693,6.98478918 17.0112316,1.20482601 9.86906849,7.26005566 C2.72690541,13.3154962 6.14274088,22.1653661 6.14274088,22.1653661 C6.14274088,22.1653661 -4.80337286,29.0746601 3.96908492,39.8655278 C3.96908492,39.8655278 9.4225251,44.7097958 14.4977639,42.7534 L14.4977639,42.7534 Z" id="Page-1" fill="#E0E0E0"></path>
                            <g id="Group-12" transform="translate(12.686443, 12.787745)" stroke="#979797" stroke-width="0.5">
                                <path d="M0.116893306,16.0911683 L28.5369627,24.1946344" id="Line" stroke-linecap="square"></path>
                                <path d="M25.5085946,0.115763801 L8.96904606,27.4360208" id="Line" stroke-linecap="square"></path>
                                <path d="M0.116893306,16.0911683 L13.3951224,12.8497819" id="Line" stroke-linecap="square"></path>
                                <path d="M13.3951224,12.8497819 L25.5085946,0.115763801" id="Line" stroke-linecap="square"></path>
                                <path d="M13.3951224,12.8497819 L9.90085162,25.8153276" id="Line" stroke-linecap="square"></path>
                                <path d="M13.3951224,13.3128371 L28.5369627,23.9631068" id="Line" stroke-linecap="square"></path>
                                <polygon id="Path-589" points="0.000417611669 15.9754045 8.85257037 27.5517846 13.7445495 19.9113737 28.6534384 24.3103982 25.6250703 0"></polygon>
                            </g>
                        </g>
                    </g>
                </g>
            </g>
        </g>
    </g>
</svg>