<?xml version="1.0" encoding="UTF-8" standalone="no"?>
<svg width="20px" height="20px" viewBox="0 0 20 20" version="1.1" xmlns="http://www.w3.org/2000/svg" xmlns:xlink="http://www.w3.org/1999/xlink">
    <!-- Generator: Sketch 41.2 (35397) - http://www.bohemiancoding.com/sketch -->
    <title>Icon - Volume - Unselected</title>
    <desc>Created with Sketch.</desc>
    <defs></defs>
    <g id="Jan-4" stroke="none" stroke-width="1" fill="none" fill-rule="evenodd">
        <g id="Icons" transform="translate(-225.000000, -76.000000)" stroke="#FFFFFF" stroke-width="1.1" fill="#FFFFFF">
            <g id="Icon---Volume---Unselected" transform="translate(225.000000, 76.000000)">
                <path d="M1.00533532,0.593288307 C0.777211405,0.593288307 0.59229184,0.778207872 0.59229184,1.00633178 L0.59229184,18.3541641 C0.59229184,18.582288 0.777211405,18.7672075 1.00533532,18.7672075 L18.3531614,18.7672075 C18.5812853,18.7672075 18.7662049,18.582288 18.7662049,18.3541641 C18.7662049,18.1260402 18.5812853,17.9411206 18.3531614,17.9411206 L1.4183788,17.9411206 L1.4183788,1.00633178 C1.4183788,0.778207872 1.23345923,0.593288307 1.00533532,0.593288307 Z M13.3966397,5.34328831 C13.1394375,5.34473396 12.9616429,5.57811798 12.9642244,5.7756932 C12.974344,5.99199787 13.1803494,6.17956092 13.3966397,6.16937939 L15.6683788,6.16937939 L9.66634075,11.8100065 C8.91338314,11.1835641 8.14989293,10.5554282 7.5107701,10.0093847 C7.42595162,9.91894885 7.29875488,9.87002385 7.17517227,9.88030863 C7.08211358,9.88712385 6.99176032,9.92644559 6.92346358,9.99003363 L2.7930288,13.7074249 C2.63249945,13.8527336 2.62192554,14.1342021 2.76721358,14.2947108 C2.91256358,14.4552402 3.18756793,14.465876 3.34807662,14.320526 L7.20743097,10.8419358 L9.38883749,12.6554445 C9.53937119,12.804326 9.80937771,12.8073619 9.96321575,12.6618467 L16.287944,6.71794244 L16.287944,9.06068374 C16.2848462,9.27889668 16.482756,9.48017276 16.7009875,9.48017276 C16.919219,9.48017276 17.1171081,9.27889668 17.114031,9.06068374 L17.114031,5.75633178 C17.1140103,5.54006842 16.9172571,5.34330896 16.7009875,5.34328831 L13.3966397,5.34328831 Z" id="Shape"></path>
            </g>
        </g>
    </g>
</svg>