<?xml version="1.0" encoding="utf-8"?>
<!-- Generator: Adobe Illustrator 19.0.0, SVG Export Plug-In . SVG Version: 6.00 Build 0)  -->
<svg version="1.1" id="Layer_1" xmlns="http://www.w3.org/2000/svg" xmlns:xlink="http://www.w3.org/1999/xlink" x="0px" y="0px"
	 viewBox="0 0 48 48" style="enable-background:new 0 0 48 48;" xml:space="preserve">
<g>
	<g>
		<rect x="10" y="19.3" width="6.9" height="6.9"/>
		<rect x="20.5" y="19.3" width="6.9" height="6.9"/>
		<rect x="31" y="19.3" width="6.9" height="6.9"/>
		<rect x="10" y="29.8" width="6.9" height="6.9"/>
		<rect x="20.5" y="29.8" width="6.9" height="6.9"/>
		<rect x="31" y="29.8" width="6.9" height="6.9"/>
	</g>
	<path d="M47,7.6C47,5.1,44.9,3,42.4,3H5.6C3.1,3,1,5.1,1,7.6v32.8C1,42.9,3.1,45,5.6,45h36.8c2.5,0,4.6-2.1,4.6-4.6V7.6z M43,41H5
		V14h38V41z"/>
</g>
</svg>
