<?xml version="1.0" encoding="utf-8"?>
<!-- Generator: Adobe Illustrator 19.0.0, SVG Export Plug-In . SVG Version: 6.00 Build 0)  -->
<svg version="1.1" id="Layer_1" xmlns="http://www.w3.org/2000/svg" xmlns:xlink="http://www.w3.org/1999/xlink" x="0px" y="0px"
	 viewBox="0 0 48 48" style="enable-background:new 0 0 48 48;" xml:space="preserve">
	<g id="XMLID_1_">
		<polygon id="XMLID_32_" points="14.9,9.6 6.9,9.6 3,16.4 6.9,23.3 14.9,23.3 18.8,16.4 	"/>
		<polygon id="XMLID_18_" points="27.7,1.5 19.8,1.5 15.8,8.4 19.8,15.2 27.7,15.2 31.7,8.4 	"/>
		<polygon id="XMLID_17_" points="40.9,9.6 33,9.6 29,16.4 33,23.2 40.9,23.2 44.9,16.4 	"/>
		<polygon id="XMLID_3_"  points="14.9,24.8 6.9,24.8 3,31.6 6.9,38.4 14.9,38.4 18.8,31.6 	"/>
		<polygon id="XMLID_4_"  points="27.7,32.8 19.8,32.8 15.8,39.6 19.8,46.5 27.7,46.5 31.7,39.6 	"/>
		<polygon id="XMLID_5_"  points="40.9,24.8 33,24.8 29,31.6 33,38.4 40.9,38.4 44.9,31.6 	"/>
	</g>
</svg>
