<?xml version="1.0" encoding="utf-8"?>
<!-- Generator: Adobe Illustrator 19.0.0, SVG Export Plug-In . SVG Version: 6.00 Build 0)  -->
<svg version="1.1" id="Layer_1" xmlns="http://www.w3.org/2000/svg" xmlns:xlink="http://www.w3.org/1999/xlink" x="0px" y="0px"
	 viewBox="0 0 48 48" style="enable-background:new 0 0 48 48;" xml:space="preserve">
<g>
	<g>
		<line x1="6.6" y1="6.4" x2="41.4" y2="41.6"/>
		<path d="M41.4,44.2c-0.7,0-1.3-0.3-1.8-0.8L4.8,8.2c-1-1-1-2.7,0-3.7c1-1,2.7-1,3.7,0l34.8,35.2c1,1,1,2.7,0,3.7
			C42.7,43.9,42.1,44.2,41.4,44.2z"/>
	</g>
	<path d="M6.6,44.2c-0.7,0-1.3-0.2-1.8-0.7c-1-1-1-2.6,0-3.7L39.6,4.6c1-1,2.6-1,3.7,0c1,1,1,2.6,0,3.7L8.4,43.4
		C7.9,43.9,7.3,44.2,6.6,44.2z"/>
</g>
</svg>
