<?xml version="1.0" encoding="utf-8"?>
<!-- Generator: Adobe Illustrator 19.0.0, SVG Export Plug-In . SVG Version: 6.00 Build 0)  -->
<svg version="1.1" id="Layer_1" xmlns="http://www.w3.org/2000/svg" xmlns:xlink="http://www.w3.org/1999/xlink" x="0px" y="0px"
	 viewBox="0 0 48 48" style="enable-background:new 0 0 48 48;" xml:space="preserve">
<g>
	<path d="M43,44c-0.3,0-0.5-0.1-0.7-0.3L4.3,5.8c-0.4-0.4-0.4-1.1,0-1.5s1.1-0.4,1.5,0l37.9,37.9c0.4,0.4,0.4,1.1,0,1.5
		C43.5,43.9,43.2,44,43,44z"/>
	<path d="M5,44c-0.3,0-0.5-0.1-0.7-0.3c-0.4-0.4-0.4-1.1,0-1.5L42.2,4.3c0.4-0.4,1.1-0.4,1.5,0c0.4,0.4,0.4,1.1,0,1.5L5.8,43.7
		C5.6,43.9,5.3,44,5,44z"/>
</g>
</svg>
