<?xml version="1.0" encoding="utf-8"?>
<!-- Generator: Adobe Illustrator 19.0.0, SVG Export Plug-In . SVG Version: 6.00 Build 0)  -->
<svg version="1.1" id="Layer_1" xmlns="http://www.w3.org/2000/svg" xmlns:xlink="http://www.w3.org/1999/xlink" x="0px" y="0px"
	 viewBox="0 0 48 48" style="enable-background:new 0 0 48 48;" xml:space="preserve">
<path d="M42,44c-0.5,0-1-0.2-1.4-0.6L24,26.8L7.4,43.4C7,43.8,6.5,44,6,44s-1-0.2-1.4-0.6c-0.8-0.8-0.8-2,0-2.8L21.2,24
	L4.6,7.4c-0.8-0.8-0.8-2,0-2.8C4.9,4.2,5.4,4,6,4s1,0.2,1.4,0.6L24,21.2L40.6,4.6C41,4.2,41.5,4,42,4s1,0.2,1.4,0.6
	c0.8,0.8,0.8,2,0,2.8L26.8,24l16.6,16.6c0.8,0.8,0.8,2,0,2.8C43.1,43.8,42.6,44,42,44z"/>
</svg>
