<?xml version="1.0" encoding="utf-8"?>
<!-- Generator: Adobe Illustrator 19.0.0, SVG Export Plug-In . SVG Version: 6.00 Build 0)  -->
<svg version="1.1" id="Layer_1" xmlns="http://www.w3.org/2000/svg" xmlns:xlink="http://www.w3.org/1999/xlink" x="0px" y="0px"
	 viewBox="0 0 48 48" style="enable-background:new 0 0 48 48;" xml:space="preserve">
<g>
	<path class="st0" d="M36.6,43.4c-0.1,0-0.3,0-0.4-0.1L26.3,38H5.6C3.1,38,1,35.9,1,33.4V9.2c0-2.5,2.1-4.6,4.6-4.6h36.9
		c2.5,0,4.6,2.1,4.6,4.6v24.2c0,2.5-2.1,4.6-4.6,4.6h-4.9l0,4.5c0,0.3-0.2,0.6-0.4,0.8C36.9,43.4,36.8,43.4,36.6,43.4z M5.6,6.4
		C4,6.4,2.8,7.6,2.8,9.2v24.2c0,1.5,1.3,2.8,2.8,2.8h21c0.1,0,0.3,0,0.4,0.1l8.8,4.7l0-4c0-0.5,0.4-0.9,0.9-0.9h5.8
		c1.5,0,2.8-1.3,2.8-2.8V9.2c0-1.5-1.3-2.8-2.8-2.8H5.6z"/>
	<g>
		<path class="st0" d="M36.9,16H10.5c-0.5,0-0.9-0.5-0.9-1s0.4-1,0.9-1h26.4c0.5,0,0.9,0.5,0.9,1S37.4,16,36.9,16z"/>
		<path class="st0" d="M36.9,23H10.5c-0.5,0-0.9-0.5-0.9-1s0.4-1,0.9-1h26.4c0.5,0,0.9,0.5,0.9,1S37.4,23,36.9,23z"/>
		<path class="st0" d="M36.9,30H10.5c-0.5,0-0.9-0.6-0.9-1s0.4-1,0.9-1h26.4c0.5,0,0.9,0.6,0.9,1S37.4,30,36.9,30z"/>
	</g>
</g>
</svg>
