<?xml version="1.0" encoding="utf-8"?>
<!-- Generator: Adobe Illustrator 19.0.0, SVG Export Plug-In . SVG Version: 6.00 Build 0)  -->
<svg version="1.1" id="Layer_1" xmlns="http://www.w3.org/2000/svg" xmlns:xlink="http://www.w3.org/1999/xlink" x="0px" y="0px"
	 viewBox="0 0 48 48" style="enable-background:new 0 0 48 48;" xml:space="preserve">
<g>
	<ellipse cx="24" cy="4.8" rx="3.6" ry="3.8"/>
	<path d="M34.1,23.2L31,12.5C30.6,11.3,29.6,9,27,9h-6.1c-2.5,0-3.6,2.3-3.9,3.5l-3.1,10.7c-0.6,2.3,2.2,3.4,2.8,1.3
		l2.8-9.5h0.8l-4.8,17H20v13c0,3,3.3,3,3.3,0l0-13H25v13c0,3,3,3,3,0V32h4.5l-4.8-17h0.8l2.8,9.5C31.9,26.7,34.7,25.5,34.1,23.2z"/>
</g>
</svg>
