<?xml version="1.0" encoding="utf-8"?>
<!-- Generator: Adobe Illustrator 19.0.0, SVG Export Plug-In . SVG Version: 6.00 Build 0)  -->
<svg version="1.1" id="Layer_1" xmlns="http://www.w3.org/2000/svg" xmlns:xlink="http://www.w3.org/1999/xlink" x="0px" y="0px"
	 viewBox="0 0 48 48" style="enable-background:new 0 0 48 48;" xml:space="preserve">
<g>
	<path d="M21.1,38.1v-7.4c0-0.4,0.3-0.7,0.7-0.7h4.4c0.4,0,0.7,0.3,0.7,0.7V38c0,0.4,0.3,0.7,0.7,0.7h3.3
		c0.6,0,0.9,0.7,0.5,1.2c-2.3,2.3-4.6,4.6-6.9,6.9c-0.3,0.3-0.7,0.3-1,0c-2.3-2.3-4.6-4.6-6.9-6.9c-0.4-0.4-0.1-1.2,0.5-1.2h3.3
		C20.7,38.7,21.1,38.4,21.1,38.1"/>
	<path d="M39.8,16.5c2.4,2.4,4.7,4.7,7,7c0.3,0.3,0.3,0.7,0,1c-2.3,2.3-4.6,4.6-7,7c-0.4,0.4-1.2,0.1-1.2-0.5v-3.3
		c0-0.4-0.3-0.7-0.7-0.7h-7.4c-0.4,0-0.7-0.3-0.7-0.7v-4.5c0-0.4,0.3-0.7,0.7-0.7H38c0.4,0,0.7-0.3,0.7-0.7V17
		C38.6,16.4,39.4,16.1,39.8,16.5"/>
	<path d="M24.5,1.2c2.3,2.3,4.6,4.6,6.9,6.9c0.4,0.4,0.1,1.2-0.5,1.2h-3.3c-0.4,0-0.7,0.3-0.7,0.7v7.4
		c0,0.4-0.3,0.7-0.7,0.7h-4.5c-0.4,0-0.7-0.3-0.7-0.7V10c0-0.4-0.3-0.7-0.7-0.7H17c-0.6,0-0.9-0.7-0.5-1.2l7-6.9
		C23.8,0.9,24.2,0.9,24.5,1.2"/>
	<path d="M9.3,17.1v3.3c0,0.4,0.3,0.7,0.7,0.7h7.4c0.4,0,0.7,0.3,0.7,0.7v4.5c0,0.4-0.3,0.7-0.7,0.7H10
		c-0.4,0-0.7,0.3-0.7,0.7v3.3c0,0.6-0.7,0.9-1.2,0.5c-2.3-2.3-4.6-4.6-6.9-6.9c-0.3-0.3-0.3-0.7,0-1c2.3-2.3,4.6-4.6,6.9-6.9
		C8.5,16.2,9.3,16.5,9.3,17.1"/>
</g>
</svg>
