<?xml version="1.0" encoding="utf-8"?>
<!-- Generator: Adobe Illustrator 19.0.0, SVG Export Plug-In . SVG Version: 6.00 Build 0)  -->
<svg version="1.1" id="Layer_1" xmlns="http://www.w3.org/2000/svg" xmlns:xlink="http://www.w3.org/1999/xlink" x="0px" y="0px"
	 viewBox="0 0 48 48" style="enable-background:new 0 0 48 48;" xml:space="preserve">
<g>
	<path d="M24,47C11.3,47,1,36.7,1,24S11.3,1,24,1s23,10.3,23,23S36.7,47,24,47z M24,4C13,4,4,13,4,24c0,11,9,20,20,20s20-9,20-20
		C44,13,35,4,24,4z M20.7,33.7c0-1.6,0.8-2.4,2.3-2.4c0.8,0,1.3,0.2,1.7,0.6c0.4,0.4,0.6,1,0.6,1.7c0,0.7-0.2,1.3-0.6,1.8
		c-0.4,0.4-1,0.6-1.7,0.6c-0.7,0-1.3-0.2-1.7-0.6C20.8,35.1,20.7,34.5,20.7,33.7z M21.8,28.7v-1c0-1.1,0-2.1,0.4-2.9
		c0.4-0.8,1-1.5,2.1-2.4c1.2-1,2-1.7,2.3-2.3c0.4-0.5,0.5-1.2,0.5-1.9c0-0.9-0.3-1.5-0.9-2c-0.6-0.5-1.4-0.7-2.5-0.7
		c-1,0-1.9,0.1-2.8,0.4c-0.8,0.3-1.7,0.6-2.5,1l-1.3-2.8c2.1-1.2,4.4-1.8,6.8-1.8c2,0,3.7,0.5,4.9,1.5c1.2,1,1.8,2.4,1.8,4.1
		c0,0.8-0.1,1.5-0.3,2.1c-0.2,0.6-0.6,1.2-1,1.7c-0.5,0.6-1.3,1.3-2.4,2.2c-1,0.8-1.4,1.4-1.8,1.9c-0.3,0.5-0.3,1.2-0.3,2v0.7H21.8z
		"/>
</g>
</svg>
