<?xml version="1.0" encoding="utf-8"?>
<!-- Generator: Adobe Illustrator 19.0.0, SVG Export Plug-In . SVG Version: 6.00 Build 0)  -->
<svg version="1.1" id="Layer_1" xmlns="http://www.w3.org/2000/svg" xmlns:xlink="http://www.w3.org/1999/xlink" x="0px" y="0px"
	 viewBox="0 0 48 48" style="enable-background:new 0 0 48 48;" xml:space="preserve">
<path d="M24,1C11.3,1,1,11.3,1,24c0,12.7,10.3,23,23,23c12.7,0,23-10.3,23-23C47,11.3,36.7,1,24,1z M24.8,34.8
	c-0.4,0.4-0.9,0.6-1.7,0.6c-0.7,0-1.3-0.2-1.7-0.6c-0.4-0.4-0.6-1-0.6-1.7c0-1.5,0.7-2.3,2.2-2.3c0.7,0,1.3,0.2,1.7,0.6
	c0.4,0.4,0.6,1,0.6,1.7C25.4,33.8,25.2,34.4,24.8,34.8z M30.2,20c-0.2,0.6-0.6,1.2-1,1.7c-0.4,0.5-1.2,1.2-2.3,2.1
	c-0.9,0.7-1.8,1.3-2.1,1.8c-0.3,0.5-0.7,1.1-0.7,2V28h-2v-0.7c0-1.1,0-2,0.4-2.8c0.4-0.7,1-1.5,2-2.3c1.2-0.9,1.9-1.7,2.3-2.2
	c0.3-0.5,0.5-1.2,0.5-1.9c0-0.8-0.3-1.5-0.9-2c-0.6-0.5-1.4-0.7-2.4-0.7c-1,0-1.9,0.1-2.7,0.4s-1.6,0.6-2.4,1l-1.3-2.7
	c2-1.1,4.2-1.7,6.6-1.7c2,0,3.5,0.5,4.7,1.5c1.2,1,1.7,2.3,1.7,4C30.5,18.8,30.4,19.5,30.2,20z"/>
</svg>
