<?xml version="1.0" encoding="utf-8"?>
<!-- Generator: Adobe Illustrator 19.0.0, SVG Export Plug-In . SVG Version: 6.00 Build 0)  -->
<svg version="1.1" id="Layer_1" xmlns="http://www.w3.org/2000/svg" xmlns:xlink="http://www.w3.org/1999/xlink" x="0px" y="0px"
	 viewBox="0 0 48 48" style="enable-background:new 0 0 48 48;" xml:space="preserve">
<g>
	<path d="M18.7,15.5l0,10.6c0,0.9-0.7,1.6-1.6,1.6c-0.9,0-1.6-0.7-1.6-1.6V14.7c0-2.9,2.3-5.3,5.1-5.3h6.7
		c2.8,0,5.1,2.4,5.1,5.3l-0.1,11.3c0,0.9-0.7,1.6-1.6,1.6c-0.9,0-1.6-0.7-1.6-1.6V15.5c0-0.2-0.2-0.4-0.4-0.4
		c-0.2,0-0.4,0.2-0.4,0.4l0.1,29.4c0,1.2-0.9,2.2-2.1,2.2c-1.2,0-2.1-1-2.1-2.2V27.7c0-0.2-0.2-0.4-0.3-0.4c-0.2,0-0.3,0.2-0.3,0.4
		v17.2c0,1.2-0.9,2.2-2.1,2.2c-1.2,0-2.1-1-2.1-2.2V15.5c0-0.2-0.2-0.4-0.4-0.4C18.9,15.1,18.7,15.3,18.7,15.5z"/>
	<ellipse cx="24" cy="4.8" rx="3.6" ry="3.8"/>
</g>
</svg>
