<?xml version="1.0" encoding="utf-8"?>
<!-- Generator: Adobe Illustrator 19.0.0, SVG Export Plug-In . SVG Version: 6.00 Build 0)  -->
<svg version="1.1" id="Layer_1" xmlns="http://www.w3.org/2000/svg" xmlns:xlink="http://www.w3.org/1999/xlink" x="0px" y="0px"
	 viewBox="0 0 48 48" style="enable-background:new 0 0 48 48;" xml:space="preserve">
<g>
	<g>
		<g>
		</g>
		<g>
			<path d="M45.1,46.7c-0.5,0-1-0.2-1.4-0.5L31.1,33.9c-3.3,2.4-7.3,3.8-11.4,3.8c-5,0-9.7-1.9-13.2-5.3
				C2.9,29,1,24.4,1,19.5C1,14.6,2.9,10,6.5,6.6c3.6-3.4,8.3-5.3,13.2-5.3c5,0,9.7,1.9,13.2,5.3c3.5,3.4,5.5,8,5.5,12.9
				c0,4.4-1.6,8.6-4.5,11.9l12.5,12.1c0.4,0.4,0.6,0.9,0.6,1.4c0,0.5-0.2,1-0.6,1.4C46.1,46.6,45.6,46.7,45.1,46.7L45.1,46.7z
				 M19.7,5.1c-4,0-7.7,1.5-10.5,4.2C6.4,12,4.9,15.6,4.9,19.5c0,3.8,1.5,7.4,4.3,10.2c2.8,2.7,6.6,4.2,10.5,4.2s7.7-1.5,10.5-4.2
				c2.8-2.7,4.3-6.3,4.3-10.2c0-3.8-1.5-7.4-4.3-10.2C27.5,6.6,23.7,5.1,19.7,5.1z"/>
		</g>
	</g>
	<g>
		<path d="M26,29.1c-0.5,0-1-0.3-1.2-0.7c-1.1-2-3.1-3.2-5.4-3.2c-2.2,0-4.3,1.2-5.4,3.2c-0.4,0.7-1.2,0.9-1.9,0.5
			c-0.7-0.4-0.9-1.2-0.5-1.9c1.6-2.8,4.6-4.6,7.8-4.6c3.2,0,6.2,1.8,7.8,4.6c0.4,0.7,0.1,1.5-0.5,1.9C26.5,29,26.3,29.1,26,29.1z"/>
		<circle cx="25.3" cy="14.9" r="2.3"/>
		<circle cx="13.7" cy="14.9" r="2.3"/>
	</g>
</g>
</svg>
