<?xml version="1.0" encoding="utf-8"?>
<!-- Generator: Adobe Illustrator 19.0.0, SVG Export Plug-In . SVG Version: 6.00 Build 0)  -->
<svg version="1.1" id="Layer_1" xmlns="http://www.w3.org/2000/svg" xmlns:xlink="http://www.w3.org/1999/xlink" x="0px" y="0px"
	 viewBox="0 0 48 48" style="enable-background:new 0 0 48 48;" xml:space="preserve">
<g>
	<circle cx="29.2" cy="18.4" r="2"/>
	<circle cx="19.1" cy="18.4" r="2"/>
	<path d="M29.9,30.8c-0.4,0-0.8-0.2-1.1-0.6c-0.9-1.7-2.7-2.8-4.7-2.8c-2,0-3.8,1.1-4.7,2.8c-0.3,0.6-1.1,0.8-1.6,0.5
		c-0.6-0.3-0.8-1.1-0.5-1.6c1.4-2.5,4-4,6.8-4c2.8,0,5.4,1.5,6.8,4c0.3,0.6,0.1,1.3-0.5,1.6C30.3,30.8,30.1,30.8,29.9,30.8z"/>
	<path class="st1" d="M34.8,44.1H13.2c-0.5,0-1-0.3-1.3-0.7L1.2,24.7c-0.3-0.5-0.3-1,0-1.5L12,4.6c0.3-0.5,0.7-0.7,1.3-0.7h21.5
		c0.5,0,1,0.3,1.3,0.7l10.8,18.7c0.3,0.5,0.3,1,0,1.5L36,43.4C35.8,43.9,35.3,44.1,34.8,44.1z M14.1,41.2h19.9L43.9,24L33.9,6.8
		H14.1L4.1,24L14.1,41.2z"/>
</g>
</svg>
