<?xml version="1.0" encoding="utf-8"?>
<!-- Generator: Adobe Illustrator 19.0.0, SVG Export Plug-In . SVG Version: 6.00 Build 0)  -->
<svg version="1.1" id="Layer_1" xmlns="http://www.w3.org/2000/svg" xmlns:xlink="http://www.w3.org/1999/xlink" x="0px" y="0px"
	 viewBox="0 0 48 48" style="enable-background:new 0 0 48 48;" xml:space="preserve">
<path d="M46.1,46.7c-0.2,0-0.5-0.1-0.7-0.3L31.5,33c-3.4,2.8-7.6,4.3-12,4.3c-4.9,0-9.6-1.9-13.1-5.3
	C2.9,28.6,1,24.1,1,19.3c0-4.8,1.9-9.3,5.4-12.7c3.5-3.4,8.2-5.3,13.1-5.3c4.9,0,9.6,1.9,13.1,5.3c3.5,3.4,5.4,7.9,5.4,12.7
	c0,4.7-1.8,9.1-5.2,12.5l13.9,13.5c0.2,0.2,0.3,0.4,0.3,0.6c0,0.2-0.1,0.5-0.3,0.6C46.6,46.7,46.3,46.7,46.1,46.7L46.1,46.7z
	 M19.5,3c-4.5,0-8.7,1.7-11.8,4.8c-3.2,3.1-4.9,7.1-4.9,11.5c0,4.3,1.7,8.4,4.9,11.5c3.2,3.1,7.4,4.8,11.8,4.8
	c4.5,0,8.7-1.7,11.8-4.8c3.2-3.1,4.9-7.1,4.9-11.5c0-4.3-1.7-8.4-4.9-11.5C28.2,4.7,24,3,19.5,3z"/>
</svg>
