<?xml version="1.0" encoding="utf-8"?>
<!-- Generator: Adobe Illustrator 19.0.0, SVG Export Plug-In . SVG Version: 6.00 Build 0)  -->
<svg version="1.1" id="Layer_1" xmlns="http://www.w3.org/2000/svg" xmlns:xlink="http://www.w3.org/1999/xlink" x="0px" y="0px"
	 viewBox="0 0 48 48" style="enable-background:new 0 0 48 48;" xml:space="preserve">
<g>
	<path d="M44.8,46.7c-0.6,0-1.1-0.2-1.6-0.6L31,34.2c-7.4,5.4-17.9,4.7-24.5-1.7C3,29,1,24.4,1,19.6
		c0-4.9,2-9.5,5.5-12.9c3.6-3.4,8.3-5.3,13.3-5.3c5,0,9.7,1.9,13.3,5.3c3.5,3.4,5.5,8,5.5,12.9c0,4.3-1.5,8.4-4.3,11.7L46.4,43
		c0.4,0.4,0.7,1,0.6,1.6c0,0.6-0.3,1.2-0.7,1.6C45.9,46.5,45.4,46.7,44.8,46.7z M19.8,5.6c-3.9,0-7.5,1.5-10.2,4.1
		c-2.7,2.6-4.2,6.1-4.2,9.8s1.5,7.2,4.2,9.8c5.6,5.5,14.8,5.5,20.4,0c2.7-2.6,4.2-6.1,4.2-9.8s-1.5-7.2-4.2-9.8
		C27.3,7.1,23.7,5.6,19.8,5.6z"/>
</g>
</svg>
