<?xml version="1.0" encoding="utf-8"?>
<!-- Generator: Adobe Illustrator 19.0.0, SVG Export Plug-In . SVG Version: 6.00 Build 0)  -->
<svg version="1.1" id="Layer_1" xmlns="http://www.w3.org/2000/svg" xmlns:xlink="http://www.w3.org/1999/xlink" x="0px" y="0px"
	 viewBox="0 0 48 48" style="enable-background:new 0 0 48 48;" xml:space="preserve">
<g>
	<path d="M44.4,46.7c-0.7,0-1.4-0.2-1.9-0.8L30.8,34.6c-7.4,5.1-17.7,4.4-24.3-1.9C3,29.2,1,24.6,1,19.7s2-9.5,5.5-13
		c3.6-3.5,8.3-5.3,13.3-5.3c5,0,9.8,1.9,13.3,5.3c3.6,3.5,5.5,8.1,5.5,13c0,4.2-1.4,8.1-4.1,11.4l11.5,11.2c0.5,0.5,0.8,1.2,0.8,1.9
		c0,0.7-0.3,1.4-0.9,1.9C45.7,46.5,45,46.7,44.4,46.7z M19.9,6.6c-3.6,0-7.1,1.4-9.6,3.9c-2.6,2.5-4,5.7-4,9.2c0,3.5,1.4,6.7,4,9.2
		c5.3,5.1,13.9,5.1,19.2,0c2.5-2.5,4-5.7,4-9.2c0-3.5-1.4-6.7-4-9.2C26.9,7.9,23.5,6.6,19.9,6.6z"/>
</g>
</svg>
